# xmcd
#
# Track frame offsets:
# 150
# 13626
# 29100
# 38582
# 51721
# 65950
# 75937
# 86031
# 96418
# 108759
# 121958
# 131580
# 141364
# 155363
# 173447
# 191123
# 202152
# 218924
# 231408
# 243882
# 261606
# 277900
# 287234
# 294995
# 306137
#
# Disc length: 4269 seconds
#
#
# Revision: 1
# Processed by: cddbd v1.5.1PL0 Copyright (c) Steve Scherf et al.
# Submitted via: FreeRIP 2.92 
#
DISCID=7e10ab19
DTITLE=ZeZo Dos Teclados 25 Sucessos - 25 Sucessos
DYEAR=1900
DGENRE=Country
TTITLE0=Meu Cenario
TTITLE1=Ponta De Faca
TTITLE2=Eu Agradeco
TTITLE3=Mensageiro BeijaFlor
TTITLE4=Sina De Caboclo
TTITLE5=O Pauco Caiu
TTITLE6=Amado Gostoso
TTITLE7=Siboney
TTITLE8=Para Sempre Vou Te Amar
TTITLE9=Qui Nem Gilo
TTITLE10=Na Parede Da Paixao
TTITLE11=Moendo Cafe
TTITLE12=Lamento Sertanejo
TTITLE13=Loucuras De Amor
TTITLE14=Eu Te Amo Fortaleza
TTITLE15=Desencontro De Primavera
TTITLE16=Diga Para Mim
TTITLE17=Ze Do Rock
TTITLE18=Pout Pourri
TTITLE19=Voce Pode Me Perder
TTITLE20=Com Voce No Coracao
TTITLE21=Segredos
TTITLE22=E Mole Ou Quer Mais
TTITLE23=Buli Com Tu
TTITLE24=Dois Rubis
EXTD=
EXTT0=
EXTT1=
EXTT2=
EXTT3=
EXTT4=
EXTT5=
EXTT6=
EXTT7=
EXTT8=
EXTT9=
EXTT10=
EXTT11=
EXTT12=
EXTT13=
EXTT14=
EXTT15=
EXTT16=
EXTT17=
EXTT18=
EXTT19=
EXTT20=
EXTT21=
EXTT22=
EXTT23=
EXTT24=
PLAYORDER=
